<?xml version="1.0" encoding="UTF-8"?>
<svg version="1.1" xmlns="http://www.w3.org/2000/svg" width="1024" height="1024">
<path d="M0 0 C337.92 0 675.84 0 1024 0 C1024 337.92 1024 675.84 1024 1024 C686.08 1024 348.16 1024 0 1024 C0 686.08 0 348.16 0 0 Z " fill="#000506" transform="translate(0,0)"/>
<path d="M0 0 C2.36043521 -0.0099502 4.7200808 -0.04123852 7.08032227 -0.07226562 C8.59268701 -0.07877673 10.1050578 -0.08403456 11.61743164 -0.08789062 C12.66728996 -0.10641083 12.66728996 -0.10641083 13.73835754 -0.12530518 C16.57020772 -0.11220727 18.56754004 -0.0328407 21 1.48852539 C22.75224577 4.54526339 21.59565411 7.01411293 20.81469727 10.29638672 C12.00220808 42.30271039 -2.29183496 74.1629455 -22.99584961 100.24023438 C-24.01485352 101.58214844 -24.01485352 101.58214844 -25.05444336 102.95117188 C-42.26414291 125.29358884 -69.87438799 136.12633107 -97.17553711 139.90429688 C-106.42439522 140.71759115 -115.71785951 140.96118002 -124.99584961 141.24023438 C-111.25223907 146.65501026 -99.78270722 149.41751622 -85.05834961 149.42773438 C-83.67099609 149.44610352 -83.67099609 149.44610352 -82.25561523 149.46484375 C-75.94416472 149.47811239 -70.13159952 148.71024912 -63.99584961 147.24023438 C-71.36604591 163.50434797 -92.50205688 175.57026082 -107.99584961 182.24023438 C-133.88195585 191.69634624 -161.34366986 190.87714303 -187.99584961 185.24023438 C-167.19041833 198.89379865 -146.55686432 202.88338596 -121.99584961 203.24023438 C-125.67076244 208.51754164 -129.36529268 212.85800778 -134.49584961 216.74023438 C-135.09969482 217.20381348 -135.70354004 217.66739258 -136.32568359 218.14501953 C-155.01207965 232.17736305 -175.54155765 238.83655668 -198.77490234 238.63134766 C-200.92927556 238.61526479 -203.08176685 238.63130638 -205.23608398 238.65039062 C-213.96621217 238.66155178 -222.07224704 237.72743007 -230.60742188 235.88330078 C-233.52100121 235.33035259 -236.04655199 235.10727856 -238.99584961 235.24023438 C-222.09492803 246.13870099 -205.44380908 253.55058987 -184.99584961 254.24023438 C-188.31117765 259.03964905 -192.22398054 261.70114463 -197.12084961 264.67773438 C-197.90983643 265.15782959 -198.69882324 265.6379248 -199.51171875 266.13256836 C-215.38657838 275.4310374 -232.38161078 278.62675538 -250.62084961 278.55273438 C-251.93649902 278.55144531 -253.25214844 278.55015625 -254.60766602 278.54882812 C-264.34269221 278.45295196 -273.54850871 277.56743859 -282.99584961 275.24023438 C-274.92028571 284.46945026 -263.9646176 290.59276496 -251.99584961 293.24023438 C-255.7960692 297.3999342 -259.6928958 300.10593154 -264.62084961 302.80273438 C-265.33305664 303.19477051 -266.04526367 303.58680664 -266.77905273 303.99072266 C-282.83985881 312.66312269 -298.99968729 314.84159128 -316.99584961 314.24023438 C-314.69517917 310.07470332 -312.41914418 306.28615933 -309.37084961 302.61523438 C-306.29498138 298.85521163 -303.30798618 295.04721858 -300.37084961 291.17773438 C-294.64669251 283.67641437 -288.6150963 276.43269622 -282.59106445 269.171875 C-281.20135706 267.4890827 -279.82280217 265.7985122 -278.45288086 264.09960938 C-273.96603991 258.54069139 -269.28799781 253.2292542 -264.44897461 247.97460938 C-262.11868693 245.37715495 -259.92337793 242.71617724 -257.74584961 239.99023438 C-249.88242837 230.25855348 -241.14605427 221.1575781 -232.15600586 212.46289062 C-230.31760335 210.57129745 -228.60787818 208.64129097 -226.8918457 206.640625 C-222.93960062 202.11252524 -218.75414208 197.85420277 -214.49975586 193.61132812 C-213.70738022 192.81799576 -212.91500458 192.02466339 -212.09861755 191.20729065 C-210.43334678 189.54134357 -208.76682932 187.87664181 -207.09912109 186.21313477 C-204.56550339 183.68487303 -202.03726793 181.15131777 -199.50952148 178.6171875 C-197.88158678 176.98991368 -196.25334186 175.36295012 -194.62475586 173.73632812 C-193.87867569 172.98822372 -193.13259552 172.24011932 -192.36390686 171.46934509 C-188.30457535 167.42784553 -184.16241566 163.54663747 -179.81251526 159.81878662 C-176.56917812 157.0005591 -173.48417458 154.01279759 -170.37084961 151.05273438 C-164.69213492 145.68820951 -158.90662428 140.49813281 -152.94140625 135.45507812 C-149.32479293 132.39466749 -145.79468369 129.26253205 -142.30834961 126.05273438 C-137.99923158 122.10114142 -133.55095732 118.38570599 -129.00366211 114.71289062 C-125.48882846 111.82342349 -122.05193422 108.85320446 -118.62084961 105.86523438 C-108.93305979 97.43931494 -99.21177381 89.11641635 -89.08325195 81.22192383 C-84.63103959 77.7511797 -80.25412581 74.19764706 -75.89428711 70.61132812 C-61.50835936 58.84278615 -46.91249357 47.32832977 -31.99584961 36.24023438 C-41.52919718 40.08523814 -50.83147087 44.34861685 -60.12084961 48.74023438 C-60.86129517 49.0896106 -61.60174072 49.43898682 -62.36462402 49.7989502 C-93.89983572 64.68987344 -124.33368339 80.91034038 -153.99584961 99.24023438 C-154.92123535 99.80806641 -155.84662109 100.37589844 -156.80004883 100.9609375 C-167.78428078 107.70567799 -178.3412458 114.88532616 -188.70581055 122.54736328 C-191.06102254 124.28841232 -193.42234449 126.02090145 -195.78491211 127.75195312 C-199.7729969 130.6771121 -203.75119209 133.61534359 -207.72485352 136.56005859 C-209.89863389 138.16831021 -212.07770344 139.76915126 -214.25756836 141.36914062 C-223.18313204 147.95158422 -231.69533563 154.88638621 -239.99584961 162.24023438 C-240.8659668 163.00980469 -241.73608398 163.779375 -242.63256836 164.57226562 C-247.86870512 169.25190476 -253.02220382 174.02142374 -258.1730957 178.79443359 C-261.47875352 181.85428858 -264.81593626 184.87315281 -268.18334961 187.86523438 C-272.49565648 191.72324636 -276.56287565 195.78538559 -280.62475586 199.90429688 C-282.70453322 201.95323734 -284.82824766 203.85899986 -287.05834961 205.74023438 C-290.99453644 209.10618891 -294.35081868 212.87727829 -297.76928711 216.75976562 C-299.81983429 219.04414714 -301.9319045 221.21432113 -304.12084961 223.36523438 C-307.29668815 226.49722505 -310.25903146 229.74740556 -313.16381836 233.13085938 C-315.14896548 235.41652984 -317.19624791 237.63724816 -319.24584961 239.86523438 C-323.35430076 244.40615407 -327.10356822 249.16080064 -330.84301758 254.00317383 C-333.70393875 257.67887661 -336.6816284 261.15158761 -339.87084961 264.55273438 C-347.24895068 272.48834469 -353.98538292 281.22453434 -359.99584961 290.24023438 C-360.65584961 290.24023438 -361.31584961 290.24023438 -361.99584961 290.24023438 C-362.47962952 288.38726602 -362.95763597 286.53278997 -363.43334961 284.67773438 C-363.83360352 283.12892578 -363.83360352 283.12892578 -364.24194336 281.54882812 C-365.62344157 275.48598365 -366.18933741 269.57457868 -366.18334961 263.36523438 C-366.18399414 262.66849609 -366.18463867 261.97175781 -366.18530273 261.25390625 C-366.13115849 255.96253736 -365.44488452 251.31185657 -363.99584961 246.24023438 C-361.75407709 248.40146416 -359.82241497 250.69227641 -357.87084961 253.11523438 C-354.15445871 257.42847606 -350.0557569 259.77381763 -344.99584961 262.24023438 C-345.17237061 261.7159082 -345.3488916 261.19158203 -345.53076172 260.65136719 C-346.3332148 258.2648543 -347.13330414 255.87755541 -347.93334961 253.49023438 C-348.21114258 252.66523438 -348.48893555 251.84023438 -348.77514648 250.99023438 C-349.04262695 250.19101562 -349.31010742 249.39179688 -349.58569336 248.56835938 C-349.83182373 247.83520508 -350.0779541 247.10205078 -350.33154297 246.34667969 C-355.79323062 229.02825224 -352.02359671 209.5577605 -344.04077148 193.79321289 C-341.92688055 189.76526935 -339.70487047 185.89939199 -336.99584961 182.24023438 C-336.33584961 182.24023438 -335.67584961 182.24023438 -334.99584961 182.24023438 C-334.90948242 182.96726562 -334.82311523 183.69429687 -334.73413086 184.44335938 C-332.91588505 197.45465964 -328.37270208 207.86338191 -318.99584961 217.24023438 C-319.14022461 216.27085937 -319.28459961 215.30148437 -319.43334961 214.30273438 C-323.06230164 188.73248087 -320.12676038 166.80989881 -305.05834961 145.36523438 C-297.30983121 135.28915716 -288.41470317 126.71283526 -278.99584961 118.24023438 C-278.66584961 118.90023437 -278.33584961 119.56023437 -277.99584961 120.24023438 C-278.2987793 120.96339844 -278.60170898 121.6865625 -278.91381836 122.43164062 C-282.53810894 131.83909523 -279.90052122 144.98159361 -276.99584961 154.24023438 C-275.54968602 157.40802129 -273.93201504 160.34746547 -271.99584961 163.24023438 C-271.97006836 162.28246094 -271.94428711 161.3246875 -271.91772461 160.33789062 C-270.88912993 133.07839987 -260.74085454 111.99367311 -241.99584961 92.24023438 C-241.54725586 91.7590918 -241.09866211 91.27794922 -240.63647461 90.78222656 C-229.63629998 79.03410049 -217.02335027 70.95851435 -202.99584961 63.24023438 C-202.66584961 63.90023437 -202.33584961 64.56023437 -201.99584961 65.24023438 C-202.29620117 66.07554687 -202.59655273 66.91085937 -202.90600586 67.77148438 C-204.28841091 72.17139723 -204.41940294 76.1535236 -204.43334961 80.74023438 C-204.4372168 81.61647461 -204.44108398 82.49271484 -204.44506836 83.39550781 C-204.30377045 91.45243218 -202.37525052 97.95038383 -198.99584961 105.24023438 C-198.92108398 104.41523438 -198.84631836 103.59023438 -198.76928711 102.74023438 C-196.23812934 80.50575042 -185.57063127 62.74788063 -168.15112305 48.75878906 C-150.613892 35.4079235 -130.50628786 26.90894411 -109.99584961 19.24023438 C-109.26914062 18.96840332 -108.54243164 18.69657227 -107.79370117 18.41650391 C-73.50442347 5.81812319 -36.41139783 0.09297516 0 0 Z " fill="#FCFCFC" transform="translate(763.995849609375,234.759765625)"/>
<path d="M0 0 C25.95886907 22.94796577 36.4088053 76.17924688 42 109 C42.20737793 110.17973389 42.20737793 110.17973389 42.41894531 111.38330078 C46.79487061 137.25855204 46.69633981 165.0266122 43 191 C42.855625 192.17433594 42.71125 193.34867188 42.5625 194.55859375 C42.10994727 198.05375546 41.57527153 201.52288412 41 205 C40.87399414 205.7636084 40.74798828 206.5272168 40.61816406 207.31396484 C38.38683093 220.56025082 35.1819541 233.24157691 31 246 C30.5671167 247.34916504 30.5671167 247.34916504 30.12548828 248.72558594 C13.07347985 301.56928974 -19.36808255 353.10405059 -64 387 C-65.35544922 388.06347656 -65.35544922 388.06347656 -66.73828125 389.1484375 C-104.25925781 418.08883891 -149.38090808 437.35772856 -195.94775391 445.63427734 C-197.69070219 445.94488126 -199.42983102 446.27679836 -201.16796875 446.61328125 C-204.10610062 447.15615188 -207.03909066 447.59852077 -210 448 C-210.65258789 448.09023438 -211.30517578 448.18046875 -211.97753906 448.2734375 C-243.85473587 452.48766271 -276.57251416 450.81928953 -307.83837891 443.49853516 C-309.92265464 443.01783818 -312.01142438 442.57262186 -314.10546875 442.13671875 C-343.83196851 435.79425736 -372.09863611 423.46789037 -397.9375 407.625 C-398.64318115 407.19574219 -399.3488623 406.76648438 -400.07592773 406.32421875 C-401.75411245 405.27275509 -403.38292325 404.14321589 -405 403 C-405 402.34 -405 401.68 -405 401 C-404.16082031 400.86464844 -403.32164062 400.72929688 -402.45703125 400.58984375 C-390.54395818 398.45749305 -377.65812294 395.4996527 -366.86254883 389.88916016 C-364.16177092 388.59983873 -362.84818706 389.11957751 -360 390 C-357.34866968 391.14814628 -354.73859517 392.33478398 -352.125 393.5625 C-337.32842506 400.28142293 -322.09773452 405.45718226 -306.3125 409.3125 C-305.37720459 409.54275879 -304.44190918 409.77301758 -303.47827148 410.01025391 C-286.85921546 413.87080326 -270.60847895 415.47922408 -253.56420898 415.33618164 C-250.56792165 415.31254277 -247.57252956 415.31565979 -244.57617188 415.32226562 C-234.85376774 415.30863697 -225.21108908 415.00154506 -215.52734375 414.10546875 C-214.68369766 414.02823074 -213.84005157 413.95099274 -212.97084045 413.87141418 C-207.81440982 413.34052639 -203.00675168 412.33915367 -198 411 C-196.48396515 410.68452713 -194.96485055 410.38296153 -193.44140625 410.10546875 C-154.57497971 402.81726947 -116.89625507 386.97521484 -86 362 C-85.06414062 361.26652344 -84.12828125 360.53304688 -83.1640625 359.77734375 C-66.54381295 346.29742413 -51.02354083 330.72605415 -39 313 C-38.13891616 311.77150737 -37.27693704 310.54364178 -36.4140625 309.31640625 C0.28343 256.42492766 18.66647686 187.10946702 10 123 C9.43769779 120.29245394 8.72982895 117.6713968 8 115 C7.5181705 112.35523258 7.06018238 109.71450079 6.625 107.0625 C1.82425424 79.50099524 -7.19892186 53.9810157 -20.05712891 29.17529297 C-21 27 -21 27 -21 24 C-19.43028559 22.70934593 -17.85820631 21.42150612 -16.27734375 20.14453125 C-10.03719876 14.26830552 -5.11478537 6.8538124 0 0 Z " fill="#FBFCFC" transform="translate(752,365)"/>
<path d="M0 0 C6.6 0 13.2 0 20 0 C20.9765625 3.90625 21.953125 7.8125 22.9296875 11.71875 C23.11418457 12.42402832 23.29868164 13.12930664 23.48876953 13.85595703 C24 16 24 16 24.31982422 18.17138672 C24.79714368 21.02140098 25.26969352 23.3589294 27.49853516 25.31542969 C29.41481891 26.42863625 31.32174402 27.29280913 33.375 28.125 C34.04789063 28.43953125 34.72078125 28.7540625 35.4140625 29.078125 C37.62518515 30.09433988 37.62518515 30.09433988 41 31 C43.8227128 29.89293162 46.24363195 28.23893236 48.75 26.546875 C49.4409375 26.093125 50.131875 25.639375 50.84375 25.171875 C52.28847197 24.21919602 53.72598017 23.25549177 55.15625 22.28125 C55.8471875 21.83265625 56.538125 21.3840625 57.25 20.921875 C57.87390625 20.50518555 58.4978125 20.08849609 59.140625 19.65917969 C61 19 61 19 63.04370117 19.71240234 C66.15568027 21.76064617 68.67167048 24.26236439 71.3125 26.875 C72.15651367 27.66970703 72.15651367 27.66970703 73.01757812 28.48046875 C74.61328125 30.0546875 74.61328125 30.0546875 77 33 C76.5389317 36.63746214 74.80676453 38.99231225 72.6875 41.9375 C72.06230469 42.81535156 71.43710937 43.69320312 70.79296875 44.59765625 C69 47 69 47 66.5 49.875 C64.76965725 51.80770783 64.76965725 51.80770783 65.25390625 53.71875 C65.62322266 54.84796875 65.62322266 54.84796875 66 56 C66.30808594 57.04414062 66.61617187 58.08828125 66.93359375 59.1640625 C68.73735136 63.31504756 70.13795485 66.47840596 74 69 C82.40274718 71.28120635 91.35538109 71.03123056 100 71 C100.99 81.395 100.99 81.395 102 92 C86.14285714 97.42857143 86.14285714 97.42857143 78 99 C77.01 103.95 76.02 108.9 75 114 C77.97 114.99 77.97 114.99 81 116 C83.8515625 117.83984375 83.8515625 117.83984375 86.625 119.9375 C87.54539062 120.62714844 88.46578125 121.31679688 89.4140625 122.02734375 C90.26742187 122.67832031 91.12078125 123.32929687 92 124 C93.33279824 125.00071306 94.66591545 126.00100241 96 127 C95.4253379 131.78642607 94.01754357 135.53788787 91.9375 139.875 C91.38964844 141.02742187 90.84179688 142.17984375 90.27734375 143.3671875 C89.85582031 144.23601562 89.43429687 145.10484375 89 146 C82.45045216 145.44495357 76.29527589 144.21351572 69.91796875 142.62109375 C66.84516354 141.86120827 66.84516354 141.86120827 63 142 C61.157911 143.78809203 61.157911 143.78809203 59.6875 146.1875 C59.15511719 146.96480469 58.62273437 147.74210938 58.07421875 148.54296875 C55.53122971 154.35947823 59.888277 161.11138412 62.0390625 166.625 C63.49684956 171.7450326 63.49684956 171.7450326 62 175 C59.71264815 176.72217177 57.67942359 178.03762593 55.1875 179.375 C54.55779297 179.74238281 53.92808594 180.10976563 53.27929688 180.48828125 C50.80751776 181.8629328 48.73088306 182.991983 45.86328125 183.0234375 C43.107402 181.50972605 41.18564235 179.50227779 39 177.25 C38.154375 176.38890625 37.30875 175.5278125 36.4375 174.640625 C34 172 34 172 31.91796875 169.171875 C31.28503906 168.45515625 30.65210938 167.7384375 30 167 C26.93814112 167 24.89966318 167.2750842 22 168 C21.2584668 168.1131958 20.51693359 168.2263916 19.75292969 168.34301758 C17.12826346 168.90879529 15.26374593 169.53622444 13 171 C10.87167674 174.69571059 9.93228818 178.56198194 8.9375 182.6875 C8.64423828 183.77095703 8.35097656 184.85441406 8.04882812 185.97070312 C7.3315015 188.64009893 6.65052404 191.31368845 6 194 C2.6871348 193.86179731 -0.62517989 193.71316222 -3.9375 193.5625 C-4.88302734 193.52318359 -5.82855469 193.48386719 -6.80273438 193.44335938 C-7.70185547 193.40146484 -8.60097656 193.35957031 -9.52734375 193.31640625 C-10.77632446 193.26141968 -10.77632446 193.26141968 -12.05053711 193.20532227 C-14 193 -14 193 -15 192 C-15.36553529 190.56589127 -15.68085268 189.11887693 -15.97265625 187.66796875 C-16.14990234 186.78689453 -16.32714844 185.90582031 -16.50976562 184.99804688 C-16.69216797 184.07056641 -16.87457031 183.14308594 -17.0625 182.1875 C-17.24876953 181.27162109 -17.43503906 180.35574219 -17.62695312 179.41210938 C-17.80291016 178.52716797 -17.97886719 177.64222656 -18.16015625 176.73046875 C-18.32136963 175.91989014 -18.48258301 175.10931152 -18.64868164 174.27416992 C-19 172 -19 172 -19 168 C-19.71027344 167.87882813 -20.42054688 167.75765625 -21.15234375 167.6328125 C-25.0728328 166.76159271 -28.65992626 165.23803243 -32.37890625 163.7421875 C-35.26717485 162.92434691 -36.22045359 163.05421178 -39 164 C-40.87152892 165.10901475 -40.87152892 165.10901475 -42.671875 166.50390625 C-43.33574219 166.99697266 -43.99960937 167.49003906 -44.68359375 167.99804688 C-45.36550781 168.51431641 -46.04742188 169.03058594 -46.75 169.5625 C-47.44738281 170.08263672 -48.14476562 170.60277344 -48.86328125 171.13867188 C-50.57974556 172.42014181 -52.29044431 173.70932798 -54 175 C-60.69407892 171.77963351 -65.8690181 166.29132508 -71 161 C-69.20952368 155.75788322 -66.11797445 151.55211321 -62.92578125 147.08398438 C-61.52576551 145.09015787 -61.52576551 145.09015787 -60 142 C-60.51694622 139.86009129 -60.51694622 139.86009129 -62 138 C-62.268125 137.01644531 -62.53625 136.03289062 -62.8125 135.01953125 C-64.24239732 131.15786777 -65.44699129 128.18306295 -69 126 C-76.70204308 124.29486713 -84.77167704 124.71534931 -92.61083984 125.01489258 C-95 125 -95 125 -96 124 C-97.31647041 117.36960159 -98.31460723 110.76405546 -98 104 C-80.15 97 -80.15 97 -75 97 C-74.67 91.72 -74.34 86.44 -74 81 C-78.38015783 78.21503707 -78.38015783 78.21503707 -82.7644043 75.43652344 C-86.35175189 73.14303299 -89.72321101 70.73170172 -93 68 C-92.36069268 63.89016726 -91.0408579 60.49787788 -89.25 56.75 C-88.76015625 55.69296875 -88.2703125 54.6359375 -87.765625 53.546875 C-86 51 -86 51 -83.87109375 50.01953125 C-79.68335806 49.99104325 -75.86340013 50.93851505 -71.8125 51.9375 C-70.19439875 52.32324719 -68.5759255 52.70743828 -66.95703125 53.08984375 C-66.24522705 53.26378662 -65.53342285 53.43772949 -64.80004883 53.61694336 C-62.98069309 54.06938092 -62.98069309 54.06938092 -61 54 C-58.90037342 51.54888584 -58.90037342 51.54888584 -56.8125 48.4375 C-55.70841797 46.88869141 -55.70841797 46.88869141 -54.58203125 45.30859375 C-52.62717409 41.22028754 -52.87513833 39.34362169 -54 35 C-55.21934124 31.85068234 -56.61627618 28.83127309 -58.0390625 25.76953125 C-59 23 -59 23 -58.98046875 20.89453125 C-57.49395089 18.02217603 -55.32068428 16.70950984 -52.6875 14.875 C-51.72199219 14.19179688 -50.75648438 13.50859375 -49.76171875 12.8046875 C-47.54274564 11.35466546 -45.40178324 10.10675997 -43 9 C-42.56171875 9.38929688 -42.1234375 9.77859375 -41.671875 10.1796875 C-40.30409294 11.38622696 -38.92524311 12.58026914 -37.5390625 13.765625 C-35.69386911 15.38939519 -33.90319403 17.07577134 -32.1484375 18.796875 C-27.00027528 24.07603315 -27.00027528 24.07603315 -20.25390625 25.96875 C-17.6760419 25.17382054 -17.6760419 25.17382054 -15.26953125 24.01953125 C-12.02799549 22.56335081 -9.49864468 22.77182752 -6 23 C-5.938125 21.989375 -5.87625 20.97875 -5.8125 19.9375 C-4.98966053 13.04310261 -2.26829732 6.51408462 0 0 Z " fill="#FBFCFC" transform="translate(560,542)"/>
<path d="M0 0 C2.7158761 0.56566368 5.43726711 1.06028091 8.16943359 1.54052734 C18.62484607 3.42501166 28.66388146 6.06029168 38.68896484 9.56005859 C40.07341797 10.04128174 40.07341797 10.04128174 41.48583984 10.53222656 C44.51609571 11.59252173 47.5410515 12.66651674 50.56396484 13.74755859 C51.53446777 14.09270508 52.5049707 14.43785156 53.50488281 14.79345703 C54.86057373 15.28700684 54.86057373 15.28700684 56.24365234 15.79052734 C57.05302246 16.08338623 57.86239258 16.37624512 58.69628906 16.67797852 C60.68896484 17.56005859 60.68896484 17.56005859 62.68896484 19.56005859 C61.69638672 20.04474609 60.70380859 20.52943359 59.68115234 21.02880859 C44.06243622 28.06979627 44.06243622 28.06979627 30.29443359 37.85693359 C27.24178784 39.8523662 25.59661636 39.75552315 22.06835938 39.10205078 C21.28315918 38.92319336 20.49795898 38.74433594 19.68896484 38.56005859 C18.77614746 38.35799805 17.86333008 38.1559375 16.92285156 37.94775391 C14.8158913 37.4694972 12.71075902 36.98314082 10.60717773 36.49023438 C-43.73815839 23.9188015 -106.20269664 26.44584927 -157.28857422 50.60693359 C-159.75286796 51.7682811 -162.23185034 52.89618125 -164.70947266 54.02880859 C-181.18712219 61.64687665 -196.03269397 70.35012884 -210.31103516 81.56005859 C-211.14892578 82.20458984 -211.98681641 82.84912109 -212.85009766 83.51318359 C-218.6169342 88.01680833 -224.02454826 92.86444821 -229.37353516 97.84912109 C-231.97476501 100.24972418 -234.63069929 102.56162799 -237.31103516 104.87255859 C-248.1912238 114.67343252 -256.93331558 126.62040463 -265.31103516 138.56005859 C-265.73094727 139.15367187 -266.15085937 139.74728516 -266.58349609 140.35888672 C-279.13944982 158.21755003 -288.36437086 177.26891289 -296.31103516 197.56005859 C-296.58141602 198.23198242 -296.85179687 198.90390625 -297.13037109 199.59619141 C-304.25098676 217.32366038 -307.85786102 236.25821248 -310.01855469 255.16162109 C-310.27435687 257.25928443 -310.59768869 259.34848821 -310.93212891 261.43505859 C-315.70632828 291.98993456 -311.57697965 323.99213347 -304.89013672 353.93164062 C-304.4000283 356.15613778 -303.95070778 358.3817983 -303.52197266 360.61865234 C-299.0798864 381.46056211 -289.26737759 403.28506578 -278.53369141 421.59130859 C-276.04356551 427.63762067 -279.29341803 433.88979804 -281.24853516 439.81005859 C-284.4443951 449.72788671 -286.47034083 459.16199725 -287.31103516 469.56005859 C-287.97103516 469.56005859 -288.63103516 469.56005859 -289.31103516 469.56005859 C-291.07839039 467.1360818 -292.70954538 464.71653436 -294.31103516 462.18505859 C-294.80087891 461.41629395 -295.29072266 460.6475293 -295.79541016 459.85546875 C-328.00174281 408.75489261 -346.59495124 351.04915254 -346.49853516 290.49755859 C-346.49726624 289.6755899 -346.49599731 288.85362122 -346.49468994 288.00674438 C-346.44169617 269.98251311 -344.69730608 252.97195682 -341.43603516 235.24755859 C-341.31315125 234.57832367 -341.19026733 233.90908875 -341.06365967 233.21957397 C-338.54658792 219.66888591 -335.2058953 206.44156747 -330.62353516 193.43505859 C-330.10871582 191.97338257 -330.10871582 191.97338257 -329.58349609 190.48217773 C-317.22614336 155.96363756 -298.81862948 125.60420621 -275.31103516 97.56005859 C-274.84262207 96.99996094 -274.37420898 96.43986328 -273.89160156 95.86279297 C-265.33794491 85.66195122 -256.44617536 76.21855585 -246.31103516 67.56005859 C-245.21136289 66.59733181 -244.11247098 65.63371327 -243.01416016 64.66943359 C-231.95080672 55.00027926 -231.95080672 55.00027926 -225.75634766 51.10302734 C-223.80259974 49.87023113 -221.89524499 48.60416068 -219.99072266 47.29833984 C-195.44959442 30.51117427 -168.55544027 17.78392327 -140.31103516 8.56005859 C-139.63363281 8.33527832 -138.95623047 8.11049805 -138.25830078 7.87890625 C-126.58128036 4.06043065 -114.38128844 1.7498614 -102.31103516 -0.43994141 C-101.39064453 -0.60945312 -100.47025391 -0.77896484 -99.52197266 -0.95361328 C-67.90133516 -6.44394011 -31.45179912 -6.57077211 0 0 Z " fill="#FCFCFC" transform="translate(558.31103515625,228.43994140625)"/>
<path d="M0 0 C9.31430492 7.72754088 16.43097228 19.01938163 17.6875 31.22607422 C18.66448881 46.52641683 15.30132081 59.65345149 5.79296875 71.96484375 C-3.12806778 81.62736903 -16.58464655 86.5992513 -29.48828125 87.48828125 C-43.03590848 87.91603808 -54.1313999 85.47433112 -64.51953125 76.21484375 C-65.11121094 75.73789062 -65.70289063 75.2609375 -66.3125 74.76953125 C-75.20411597 66.9574713 -80.81400291 53.27604112 -81.71875 41.65625 C-82.21767772 28.70133378 -78.38634744 17.45962094 -70.51953125 7.21484375 C-69.96910156 6.49683594 -69.41867187 5.77882813 -68.8515625 5.0390625 C-51.58658436 -14.58889278 -20.21998732 -14.32640962 0 0 Z " fill="#020607" transform="translate(593.51953125,599.78515625)"/>
<path d="M0 0 C9.02598458 6.50112792 14.28687939 15.64787848 16.51953125 26.4921875 C17.3430572 39.72605795 15.05113267 50.53687181 6.4765625 60.98046875 C-2.08067229 69.99206999 -12.62741965 76.4561545 -25.2578125 76.85546875 C-27.31126727 76.85415664 -29.36476767 76.83699085 -31.41796875 76.8046875 C-32.43826172 76.80791016 -33.45855469 76.81113281 -34.50976562 76.81445312 C-40.27275472 76.77399819 -45.55802492 76.20219615 -51.17797852 74.95288086 C-60.5439893 73.07888421 -71.24503834 73.33172371 -79.48046875 78.4921875 C-87.01171897 84.24623748 -91.03520404 92.22886062 -92.48046875 101.4921875 C-93.18362878 109.75850329 -91.65810934 116.29934467 -88.73046875 123.9921875 C-88.38242187 124.94738281 -88.034375 125.90257812 -87.67578125 126.88671875 C-86.26378749 130.75139798 -84.81826442 134.60275681 -83.35742188 138.44921875 C-76.98072288 155.49218642 -76.94030885 175.77688405 -84.48046875 192.4921875 C-91.17936633 205.83653402 -102.35976058 216.69133335 -113.24829102 226.65673828 C-124.61299373 237.06393197 -136.48362945 249.54961825 -137.71875 265.5859375 C-137.99564026 278.2937433 -134.47099565 288.42805109 -128.48046875 299.4921875 C-127.82046875 300.8121875 -127.16046875 302.1321875 -126.48046875 303.4921875 C-129.45046875 306.4621875 -132.42046875 309.4321875 -135.48046875 312.4921875 C-139.98303116 310.2409063 -139.98303116 310.2409063 -141.48046875 306.96484375 C-141.80845459 306.26004883 -142.13644043 305.55525391 -142.47436523 304.82910156 C-142.97238647 303.7032666 -142.97238647 303.7032666 -143.48046875 302.5546875 C-143.82859619 301.78995117 -144.17672363 301.02521484 -144.53540039 300.23730469 C-151.82820179 284.01590143 -155.97802541 267.84196217 -149.80078125 250.4765625 C-144.48456054 238.46001628 -135.56053852 228.32556258 -126.23046875 219.22265625 C-125.68239059 218.6878363 -125.13431244 218.15301636 -124.56962585 217.60198975 C-122.31310018 215.40944169 -120.0508278 213.22337215 -117.7734375 211.05249023 C-105.72273516 199.52987184 -94.43863423 186.40914842 -93.2421875 169.03125 C-93.01085556 156.83153394 -95.45272209 146.43713421 -99.98046875 135.0546875 C-105.73120121 120.49091303 -109.95247242 104.07067194 -104.4609375 88.73046875 C-98.55869609 75.25642761 -90.02916009 66.91178643 -76.390625 61.21875 C-65.42281536 57.04694511 -51.86964198 59.09670859 -40.77734375 61.8046875 C-30.17672652 64.01524275 -20.86491267 62.94207703 -11.48046875 57.4921875 C-4.25745681 52.64025547 0.08115162 46.87411747 2.51953125 38.4921875 C3.73616786 31.33358456 2.25287397 24.70055966 -1.48046875 18.4921875 C-5.84865132 13.55860343 -10.48829219 9.99193595 -17.1640625 9.15625 C-24.37911158 9.05390888 -28.06879126 10.19423259 -33.35546875 15.3046875 C-35.01090148 18.52358448 -34.85599902 20.92464994 -34.48046875 24.4921875 C-33.45169483 27.40298869 -33.45169483 27.40298869 -31.48046875 29.4921875 C-28.88924132 30.37877216 -28.88924132 30.37877216 -26.48046875 30.4921875 C-26.35671875 29.7084375 -26.23296875 28.9246875 -26.10546875 28.1171875 C-25.48046875 25.4921875 -25.48046875 25.4921875 -23.48046875 23.4921875 C-19.66162557 23.06787159 -17.35641427 22.9531441 -14.04296875 24.9921875 C-11.86388637 28.47871931 -11.60266824 31.55721969 -12.48046875 35.4921875 C-14.21490801 38.73359857 -16.54602374 40.90482207 -19.66796875 42.8671875 C-26.66551256 44.42219724 -33.24014853 44.25992801 -39.48046875 40.4921875 C-44.33991409 35.91042475 -47.94094168 31.50740475 -48.8515625 24.73046875 C-49.04531522 16.19395183 -47.45046066 9.81271258 -41.578125 3.421875 C-29.47347997 -7.68373022 -13.94456566 -8.47653913 0 0 Z " fill="#F8F8F8" transform="translate(435.48046875,301.5078125)"/>
<path d="M0 0 C4.95 0 9.9 0 15 0 C19 8.5 19 8.5 19 13 C21.98911184 14.03544397 24.99044942 15.02572176 28 16 C29.2684375 16.433125 29.2684375 16.433125 30.5625 16.875 C33.82059745 17.04208192 36.16949713 15.97704696 39.1328125 14.69140625 C41 14 41 14 44 14 C45.23149776 16.05149505 46.43420474 18.11256163 47.625 20.1875 C47.975625 20.76564453 48.32625 21.34378906 48.6875 21.93945312 C50.26104514 24.72462803 51.10656407 26.41564458 50.5234375 29.61328125 C49 32 49 32 46.421875 34.23046875 C43.00328045 38.13979703 43.1601174 41.26881624 43.25 46.3125 C43.25451172 47.16175049 43.25902344 48.01100098 43.26367188 48.88598633 C43.45547645 53.95266067 44.01682651 57.26539001 47.5 61.1875 C49.34668956 62.87216652 49.34668956 62.87216652 51 64 C49.6744419 67.62276315 48.05653045 70.63505348 45.875 73.8125 C45.33617187 74.60269531 44.79734375 75.39289063 44.2421875 76.20703125 C43.83226562 76.79871094 43.42234375 77.39039063 43 78 C41.58297487 77.85769192 40.1663904 77.71099254 38.75 77.5625 C37.56664062 77.44068359 37.56664062 77.44068359 36.359375 77.31640625 C34 77 34 77 31.9921875 76.3125 C29.13016298 75.86355498 27.80177448 76.94004217 25.375 78.4375 C21.17166213 81 21.17166213 81 19 81 C18.01 84.96 17.02 88.92 16 93 C10.72 93 5.44 93 0 93 C-3 84.375 -3 84.375 -3 81 C-3.680625 80.896875 -4.36125 80.79375 -5.0625 80.6875 C-8 80 -8 80 -11.3125 78.375 C-15.77733056 76.71014793 -18.46062829 77.08364085 -23 78 C-24.99941167 78.33684432 -26.999314 78.67080911 -29 79 C-30.17773651 77.25743068 -31.34183179 75.50563593 -32.5 73.75 C-33.1496875 72.77546875 -33.799375 71.8009375 -34.46875 70.796875 C-36 68 -36 68 -36 64 C-34.48193359 62.4296875 -34.48193359 62.4296875 -32.5234375 60.875 C-29.53219385 58.04230283 -28.47906912 56.32542193 -28.2890625 52.1875 C-28.36273152 50.45627801 -28.47555631 48.72633232 -28.625 47 C-28.645625 46.13632812 -28.66625 45.27265625 -28.6875 44.3828125 C-29.0119434 39.29986597 -29.94859554 36.52519476 -33.5859375 32.875 C-34.70401218 31.89346895 -35.83569873 30.92622716 -37 30 C-35.62712658 26.30123909 -33.93644547 23.0485524 -31.875 19.6875 C-31.33617187 18.80449219 -30.79734375 17.92148437 -30.2421875 17.01171875 C-29.83226562 16.34785156 -29.42234375 15.68398438 -29 15 C-22.1122449 15.96428571 -22.1122449 15.96428571 -19.25 16.875 C-14.6484059 17.05198439 -11.45226073 15.1652728 -7.390625 13.12890625 C-5 12 -5 12 -3 12 C-2.814375 10.700625 -2.814375 10.700625 -2.625 9.375 C-2 6 -2 6 0 0 Z " fill="#FAFBFB" transform="translate(680,520)"/>
<path d="M0 0 C3.64207493 1.39213332 7.06832672 3.00794811 10.51953125 4.8203125 C11.54111328 5.35527344 12.56269531 5.89023437 13.61523438 6.44140625 C15.19788086 7.27478516 15.19788086 7.27478516 16.8125 8.125 C17.88693359 8.68832031 18.96136719 9.25164063 20.06835938 9.83203125 C22.71338105 11.21919818 25.35720895 12.6085894 28 14 C27.34346231 17.56281627 26.38530221 20.74287604 25.0324707 24.10986328 C18.18456065 41.19865723 15.0985042 58.77986142 13 77 C11.61071822 77.46366494 10.22138488 77.92717541 8.83203125 78.390625 C8.00783691 78.66583984 7.18364258 78.94105469 6.33447266 79.22460938 C4.6047734 79.79912567 2.87162998 80.36329512 1.13671875 80.921875 C-22.96378615 89.07069005 -39.04092295 109.44035573 -54 129 C-55.3738005 124.87859851 -53.66221388 122.61151649 -51.9375 118.875 C-42.52803026 96.92195577 -37.22083968 70.42637255 -44 47 C-44 46.01 -44 45.02 -44 44 C-41.61328125 42.16015625 -41.61328125 42.16015625 -38.3125 40.0625 C-22.55500936 29.6539422 -10.36889355 15.63913496 0 0 Z " fill="#FAFBFA" transform="translate(366,617)"/>
<path d="M0 0 C1.76462683 3.08809695 2 4.23312136 2 8 C7.01131486 9.20307039 7.01131486 9.20307039 11.8671875 8.17578125 C13.69222868 6.96781292 13.69222868 6.96781292 16 5 C17.98 7.64 19.96 10.28 22 13 C20 17 20 17 19 18 C19.28730055 20.33944736 19.61936779 22.6739143 20 25 C22.31 25.66 24.62 26.32 27 27 C27 29.97 27 32.94 27 36 C24.36 36 21.72 36 19 36 C18.94577053 37.4370809 18.90710277 38.87475462 18.875 40.3125 C18.85179687 41.11300781 18.82859375 41.91351562 18.8046875 42.73828125 C18.84182678 45.28388576 18.84182678 45.28388576 21 48 C20.75526163 51.79344475 18.72821615 53.53580477 16 56 C13 55 10 54 7 53 C5.33378384 52.96125079 3.66605828 52.9549714 2 53 C1.67 55.31 1.34 57.62 1 60 C-2.3 60 -5.6 60 -9 60 C-9.495 57.525 -9.495 57.525 -10 55 C-12.68529342 53.68642084 -12.68529342 53.68642084 -16 53 C-19.18362436 54.2999844 -19.18362436 54.2999844 -22 56 C-22.99 56 -23.98 56 -25 56 C-26.32 53.69 -27.64 51.38 -29 49 C-28.2265625 47.9790625 -28.2265625 47.9790625 -27.4375 46.9375 C-25.60792912 43.19881168 -26.13821128 40.99556587 -27 37 C-28.7015625 37.0309375 -28.7015625 37.0309375 -30.4375 37.0625 C-34 37 -34 37 -35 36 C-35.1875 32.5625 -35.1875 32.5625 -35 29 C-33 27 -33 27 -30.375 26.875 C-29.59125 26.91625 -28.8075 26.9575 -28 27 C-27.01 24.03 -26.02 21.06 -25 18 C-26.32 17.34 -27.64 16.68 -29 16 C-29.33 15.01 -29.66 14.02 -30 13 C-29.00390625 11.17578125 -29.00390625 11.17578125 -27.5625 9.3125 C-26.85287109 8.37857422 -26.85287109 8.37857422 -26.12890625 7.42578125 C-25.75636719 6.95527344 -25.38382812 6.48476563 -25 6 C-23.88625 6.4640625 -23.88625 6.4640625 -22.75 6.9375 C-19.44445309 8.24996494 -19.44445309 8.24996494 -16 9 C-15.01 8.34 -14.02 7.68 -13 7 C-12.01 7 -11.02 7 -10 7 C-10 5.02 -10 3.04 -10 1 C-6.61981469 -0.04005702 -3.5219721 -0.08004482 0 0 Z " fill="#F6F7F7" transform="translate(451,671)"/>
<path d="M0 0 C0.99 0.495 0.99 0.495 2 1 C-7.06849594 9.50330511 -16.17050097 17.95562448 -25.48046875 26.1953125 C-30.63233266 30.78007201 -35.57278047 35.5021308 -40.3828125 40.4453125 C-42.38556819 42.40024119 -44.39563091 44.21353009 -46.51953125 46.02734375 C-51.89233514 50.68796801 -56.88345736 55.73381127 -61.90014648 60.76977539 C-63.5592732 62.43426277 -65.22368051 64.09333447 -66.88867188 65.75195312 C-71.96032156 70.82076203 -76.93815472 75.92286803 -81.59741211 81.37915039 C-83.45982301 83.53137771 -85.45793745 85.51889454 -87.5 87.5 C-90.89268399 90.85256779 -94.09100684 94.29475682 -97.1953125 97.9140625 C-99.21651276 100.25025501 -101.29378839 102.52964851 -103.375 104.8125 C-107.25033743 109.10608632 -110.9222131 113.53088002 -114.55859375 118.02734375 C-117.27720431 121.33752397 -120.07110253 124.57471932 -122.875 127.8125 C-132.33476792 138.78110539 -141.04853309 150.32961772 -149.828125 161.84375 C-154.20006159 167.57691227 -158.60086509 173.28769049 -163 179 C-167.29 177.02 -171.58 175.04 -176 173 C-174.17101567 168.42753918 -172.09547498 165.25103469 -169.0625 161.5 C-168.57668457 160.89051514 -168.09086914 160.28103027 -167.59033203 159.65307617 C-163.36403364 154.38075191 -159.007693 149.22163131 -154.6171875 144.0859375 C-152.19308244 141.24394435 -149.84268601 138.34709935 -147.5 135.4375 C-143.44174232 130.44831582 -139.15484434 125.72329385 -134.7734375 121.01953125 C-132.75659187 118.84886129 -130.81452573 116.62642879 -128.88500977 114.37792969 C-124.80036759 109.70392077 -120.45986463 105.31582102 -116.06640625 100.93359375 C-115.22963852 100.09586929 -114.39287079 99.25814484 -113.53074646 98.39503479 C-111.77131896 96.63493065 -110.01064347 94.87607323 -108.2487793 93.1184082 C-105.57030589 90.44529028 -102.89721127 87.76687749 -100.22460938 85.08789062 C-98.50552885 83.36947097 -96.78613811 81.65136158 -95.06640625 79.93359375 C-94.27657852 79.14174179 -93.48675079 78.34988983 -92.67298889 77.53404236 C-88.49615983 73.37459165 -84.24530725 69.36694898 -79.76885986 65.53074646 C-76.82604545 62.98407623 -74.01801066 60.29492301 -71.1875 57.625 C-66.19454716 52.95316099 -61.09431243 48.50199685 -55.75390625 44.2265625 C-53.28810273 42.23293412 -50.87408679 40.18973421 -48.47094727 38.12133789 C-40.89389435 31.61065925 -32.99858684 25.55928146 -25.03076172 19.53710938 C-16.58959571 13.14788345 -8.23424481 6.65431071 0 0 Z " fill="#F7F8F8" transform="translate(595,363)"/>
<path d="M0 0 C2.64 1.32 5.28 2.64 8 4 C7.43013668 7.57521395 6.38043069 10.75500049 5.0324707 14.10986328 C-1.81543935 31.19865723 -4.9014958 48.77986142 -7 67 C-8.38928178 67.46366494 -9.77861512 67.92717541 -11.16796875 68.390625 C-11.99216309 68.66583984 -12.81635742 68.94105469 -13.66552734 69.22460938 C-15.3952266 69.79912567 -17.12837002 70.36329512 -18.86328125 70.921875 C-42.96378615 79.07069005 -59.04092295 99.44035573 -74 119 C-75.21386936 115.35839192 -74.6674695 114.66834531 -73.0625 111.3125 C-72.49208984 110.10013672 -72.49208984 110.10013672 -71.91015625 108.86328125 C-71.45962891 107.94095703 -71.45962891 107.94095703 -71 107 C-70.01 107 -69.02 107 -68 107 C-66.47739011 104.88504996 -66.47739011 104.88504996 -65.0625 102.0625 C-62.09144939 96.74456907 -58.85281093 91.76847974 -55.3125 86.8125 C-54.80323975 86.09908447 -54.29397949 85.38566895 -53.76928711 84.65063477 C-52.71648378 83.17972232 -51.66234999 81.7097613 -50.60693359 80.24072266 C-47.92874292 76.50622949 -45.27619924 72.75368226 -42.625 69 C-42.12363525 68.29085449 -41.62227051 67.58170898 -41.10571289 66.85107422 C-37.65274002 61.95593995 -34.26352934 57.02411753 -31 52 C-31.9075 51.7525 -32.815 51.505 -33.75 51.25 C-37.73980634 49.7154591 -40.08063798 47.83872404 -42 44 C-42.34937249 40.22677712 -42.55414674 37.877399 -40.5 34.625 C-37.08288663 32.40387631 -34.06287314 31.78147893 -30 32 C-26.65639869 33.48604502 -24.52817507 35.42111655 -22 38 C-21.57702637 37.25951416 -21.15405273 36.51902832 -20.71826172 35.75610352 C-19.12168394 32.96459864 -17.52222238 30.17477092 -15.92089844 27.38598633 C-15.23324595 26.18708894 -14.54668987 24.9875619 -13.86132812 23.78735352 C-10.15618218 17.30063968 -6.41634385 10.90967824 -2.13330078 4.78491211 C-0.82892839 2.88936424 -0.82892839 2.88936424 0 0 Z " fill="#B5B7B8" transform="translate(386,627)"/>
<path d="M0 0 C5.06289821 3.76310654 8.93819743 8.37382003 10.88671875 14.40234375 C11.87936824 21.29864545 11.04837791 26.63793844 7.30859375 32.53125 C5.41560954 35.02229241 3.53001161 36.72610925 0.88671875 38.40234375 C0.04109375 38.97984375 -0.80453125 39.55734375 -1.67578125 40.15234375 C-7.84213302 42.39465348 -14.38442948 42.39465348 -20.55078125 40.15234375 C-21.81921875 39.28609375 -21.81921875 39.28609375 -23.11328125 38.40234375 C-23.95890625 37.86609375 -24.80453125 37.32984375 -25.67578125 36.77734375 C-30.86262677 31.72349427 -33.4176553 26.63190176 -33.67578125 19.33984375 C-33.31835064 11.93726775 -31.18109041 7.04776196 -25.73828125 2.02734375 C-18.25970511 -3.79108335 -8.31432572 -4.73899701 0 0 Z " fill="#F7F8F8" transform="translate(314.11328125,440.59765625)"/>
<path d="M0 0 C5.33144524 3.20062091 8.84648321 6.84432891 10.4375 12.92578125 C11.45688949 19.64002936 10.89719691 24.72710348 6.859375 30.2734375 C2.37027701 35.49016402 -2.14857448 37.54645619 -8.9375 38.30078125 C-14.52046868 37.72323277 -18.37900638 36.07682379 -22.40234375 32.11328125 C-26.62715589 26.70552171 -27.43029968 21.79698852 -27.07421875 15.015625 C-26.02300926 8.66824557 -23.05145827 4.71389849 -17.9375 0.92578125 C-12.18511196 -2.24832364 -6.05943153 -2.54015804 0 0 Z " fill="#050809" transform="translate(695.5625,548.07421875)"/>
<path d="M0 0 C6.80823557 2.13003599 13.01483751 5.31008973 19.375 8.5 C19.99750641 8.81135895 20.62001282 9.1227179 21.26138306 9.44351196 C28.88701332 13.26928896 36.4333288 17.18526706 43.6875 21.6875 C44.33315918 22.08453125 44.97881836 22.4815625 45.64404297 22.890625 C49.86968469 25.60905408 49.86968469 25.60905408 51 29 C49.93650501 31.4892158 48.83016927 33.80733755 47.5625 36.1875 C47.22412109 36.84169922 46.88574219 37.49589844 46.53710938 38.16992188 C45.70030902 39.78459299 44.85130254 41.39292763 44 43 C31.57966591 38.24080656 19.89788243 31.39311534 8.1875 25.125 C7.558508 24.78876617 6.92951599 24.45253235 6.28146362 24.10610962 C4.47173341 23.13781381 2.66333791 22.16707783 0.85546875 21.1953125 C-0.20003174 20.62828613 -1.25553223 20.06125977 -2.34301758 19.47705078 C-5 18 -5 18 -8 16 C-7.42070126 11.97387377 -6.14350034 9.19196689 -4 5.75 C-3.46375 4.87859375 -2.9275 4.0071875 -2.375 3.109375 C-1 1 -1 1 0 0 Z " fill="#F9F9F9" transform="translate(383,561)"/>
<path d="M0 0 C2.55464946 0.97703129 4.69742604 1.9442003 7.0625 3.25 C7.72660889 3.5991748 8.39071777 3.94834961 9.07495117 4.30810547 C10.5592972 5.08979951 12.03999621 5.87844589 13.51757812 6.67285156 C16.25501916 8.13633794 19.00840723 9.56632241 21.765625 10.9921875 C53.34033244 27.34033244 53.34033244 27.34033244 58 32 C58.38080215 35.50337981 58.40245078 37.36278626 56.5 40.375 C56.005 40.91125 55.51 41.4475 55 42 C50.07258135 41.49785979 46.49535175 40.52095239 42.17578125 38.11328125 C41.07741943 37.5109668 39.97905762 36.90865234 38.84741211 36.28808594 C38.27135223 35.96610229 37.69529236 35.64411865 37.10177612 35.31237793 C34.02548274 33.59329287 30.93066498 31.90826542 27.8359375 30.22265625 C27.1975444 29.87411591 26.55915131 29.52557556 25.90141296 29.16647339 C17.65958673 24.69139541 9.23340192 20.58117437 0.80004883 16.48168945 C-0.31088135 15.93601318 -1.42181152 15.39033691 -2.56640625 14.828125 C-3.54552979 14.3527832 -4.52465332 13.87744141 -5.53344727 13.38769531 C-7.82486917 12.09852951 -9.38488563 11.0611111 -11 9 C-11.38601984 5.91184125 -11.47901666 3.89815624 -10 1.125 C-6.82359047 -0.66173036 -3.52646555 -0.38933207 0 0 Z " fill="#F8F8F8" transform="translate(393,536)"/>
<path d="M0 0 C3.4176793 1.47250662 6.59443994 3.32509414 9.8125 5.1875 C11.76413653 6.28780058 13.71732709 7.38534822 15.671875 8.48046875 C16.69603516 9.05587402 17.72019531 9.6312793 18.77539062 10.22412109 C25.36196441 13.85152401 32.07945312 17.23513316 38.78637695 20.63354492 C39.78628662 21.1463501 40.78619629 21.65915527 41.81640625 22.1875 C42.69756104 22.63480469 43.57871582 23.08210937 44.48657227 23.54296875 C51.2244563 27.4489126 51.2244563 27.4489126 53 31 C53.1875 34.5 53.1875 34.5 53 38 C51 40 51 40 47.90625 40.40625 C42.91202996 39.88685112 39.74675862 38.05285273 35.5 35.5 C33.89905645 34.57444939 32.29748448 33.649985 30.6953125 32.7265625 C29.90286133 32.26411133 29.11041016 31.80166016 28.29394531 31.32519531 C25.02499325 29.43674578 21.70921109 27.64498568 18.375 25.875 C17.47998779 25.3958313 17.47998779 25.3958313 16.56689453 24.90698242 C13.3037 23.17278 10.01535707 21.5091767 6.6875 19.90234375 C5.96771973 19.55252441 5.24793945 19.20270508 4.50634766 18.84228516 C3.13038249 18.17747175 1.75008386 17.5215201 0.36474609 16.87646484 C-3.8642209 14.83410915 -7.01704731 12.64583107 -10 9 C-10 5.3125 -10 5.3125 -9 2 C-5.36424927 -0.42383382 -4.30439941 -0.56443094 0 0 Z " fill="#F7F8F8" transform="translate(368,587)"/>
<path d="M0 0 C4.10601848 1.77305344 6.66278175 4.19119988 9 8 C9.47596233 11.80769866 9.36528894 14.17329346 7.8125 17.6875 C4.78373698 21.55178385 2.32497578 23.6145525 -2.4375 25 C-6.93722259 25 -8.62374987 23.91585239 -12 21 C-14.88580586 17.53703296 -15.53023498 14.5153403 -15.359375 9.99609375 C-14.76317469 6.68458984 -13.11868967 4.54242761 -11 2 C-7.28671335 -0.47552443 -4.30393027 -0.54010105 0 0 Z " fill="#080B0D" transform="translate(450,689)"/>
<path d="M0 0 C3.03356467 1.49117063 5.11424769 3.18570095 7 6 C8.05476701 10.73418682 7.55683622 14.85616199 5 19 C0.62332463 21.84992815 -2.81479397 22.65993531 -8 22 C-11.40918784 19.87872756 -13.78269305 17.87324937 -15 14 C-15.43002518 10.68266291 -15.71759662 8.19510514 -13.94921875 5.25 C-9.91077196 0.29426589 -6.33663971 -1.16039004 0 0 Z " fill="#F7F7F7" transform="translate(712,467)"/>
<path d="M0 0 C3.60172447 1.349033 6.8294887 2.95716982 10.125 4.9375 C10.97320312 5.44152344 11.82140625 5.94554687 12.6953125 6.46484375 C14.77847115 7.85243926 16.42008805 9.06562062 18 11 C18.45185216 14.53950857 18.42109443 16.33326715 16.5 19.375 C16.005 19.91125 15.51 20.4475 15 21 C8.81218608 20.54803484 4.43479315 18.44359034 -0.9375 15.4375 C-1.71673828 15.01275391 -2.49597656 14.58800781 -3.29882812 14.15039062 C-5.20449805 13.10987146 -7.10300722 12.05625582 -9 11 C-8.01 10.67 -7.02 10.34 -6 10 C-4.93283296 8.20067421 -4.93283296 8.20067421 -4 6 C-1.22222222 1.22222222 -1.22222222 1.22222222 0 0 Z " fill="#AFB3B3" transform="translate(433,557)"/>
<path d="M0 0 C1.79887229 0.90244429 3.58890815 1.82251786 5.375 2.75 C6.87160156 3.51570312 6.87160156 3.51570312 8.3984375 4.296875 C11 6 11 6 12.5625 7.75 C13.27501893 11.41438306 11.35013093 14.12954258 9.625 17.25 C9.28210938 17.8996875 8.93921875 18.549375 8.5859375 19.21875 C7.73816328 20.82010131 6.87091321 22.41111444 6 24 C2.45756548 22.63408831 -0.92627929 21.09068516 -4.3125 19.375 C-5.19550781 18.92898438 -6.07851563 18.48296875 -6.98828125 18.0234375 C-7.65214844 17.68570313 -8.31601562 17.34796875 -9 17 C-8.43410156 15.94039062 -7.86820312 14.88078125 -7.28515625 13.7890625 C-6.54425714 12.40104898 -5.80337247 11.01302774 -5.0625 9.625 C-4.50272461 8.57699219 -4.50272461 8.57699219 -3.93164062 7.5078125 C-1.93252108 3.77120878 -1.93252108 3.77120878 0 0 Z " fill="#B3B6B7" transform="translate(421,580)"/>
<path d="M0 0 C2.96045738 2.59040021 3.85478339 4.12870035 4.5 8 C3.88466097 11.69203416 2.58383614 13.34016868 0 16 C-3.19233485 17.59616743 -6.53461497 17.51466114 -10 17 C-12.43119623 15.12984906 -13.64069173 13.71861655 -15 11 C-15.57801822 4.75740319 -15.57801822 4.75740319 -13.1875 1.625 C-8.99002376 -1.4931252 -4.88829028 -1.42616115 0 0 Z " fill="#090B0D" transform="translate(359,660)"/>
<path d="M0 0 C12.85245792 6.55002672 12.85245792 6.55002672 16 11 C16.4375 14.6875 16.4375 14.6875 16 18 C14 20 14 20 10.83984375 20.375 C6.19829288 19.9217051 3.44754463 18.43380574 -0.4375 16 C-1.07365234 15.6184375 -1.70980469 15.236875 -2.36523438 14.84375 C-3.91844992 13.90948501 -5.46044863 12.95661444 -7 12 C-6.37609375 11.25363281 -5.7521875 10.50726562 -5.109375 9.73828125 C-3.38431297 7.49889517 -2.26518482 5.7762213 -1.25 3.1875 C-0.8375 2.135625 -0.425 1.08375 0 0 Z " fill="#B4B8BB" transform="translate(405,607)"/>
<path d="M0 0 C2.4375 1.5625 2.4375 1.5625 4 4 C4.80016627 8.01732963 4.66540643 10.96196597 2.4375 14.4375 C-0.88377478 16.5665223 -3.04580795 17.06817573 -7 17 C-10.4375 15 -10.4375 15 -13 12 C-13.77152986 7.67943279 -13.52747866 5.80880061 -11.125 2.125 C-7.356421 -1.643579 -5.11566802 -1.14661525 0 0 Z " fill="#0D0F10" transform="translate(307,452)"/>
<path d="M0 0 C3.5 0.625 3.5 0.625 6.5 2.5625 C8.95490835 6.32157841 8.9196772 8.28061009 8.13671875 12.59765625 C7.5 14.625 7.5 14.625 5.875 16.6875 C2.46803659 18.03235398 0.13267682 18.13484938 -3.5 17.625 C-7.19186542 15.03283917 -8.32883761 13.58350936 -9.125 9.125 C-8.11027445 3.44253693 -5.68246307 1.01472555 0 0 Z " fill="#F4F5F5" transform="translate(652.5,476.375)"/>
<path d="M0 0 C2 2 2 2 3 5 C2.21625 5.226875 1.4325 5.45375 0.625 5.6875 C-2.16408102 6.7586385 -2.16408102 6.7586385 -3.1875 9.3125 C-3.455625 10.199375 -3.72375 11.08625 -4 12 C-5.50573499 16.77367632 -8.19882448 19.92606942 -11.4375 23.625 C-11.92798828 24.19734375 -12.41847656 24.7696875 -12.92382812 25.359375 C-15.19649736 27.99702081 -17.4820765 30.59303584 -20 33 C-19.33501617 28.61110675 -17.81242323 25.0188515 -16 21 C-15.01 21 -14.02 21 -13 21 C-11.27081775 18.61748656 -11.27081775 18.61748656 -9.6875 15.5625 C-6.69179729 10.18935663 -3.49033505 5.06290358 0 0 Z " fill="#D0D2D3" transform="translate(331,713)"/>
<path d="M0 0 C1.32 0.66 2.64 1.32 4 2 C2.50934368 7.28505421 0.34673758 12.60856257 -3 17 C-5.0390625 17.88671875 -5.0390625 17.88671875 -7 18 C-7.66 17.34 -8.32 16.68 -9 16 C-8.34 16 -7.68 16 -7 16 C-6.773125 15.21625 -6.54625 14.4325 -6.3125 13.625 C-4.59339067 8.87698375 -2.31915279 4.47897448 0 0 Z " fill="#E1E3E4" transform="translate(417,578)"/>
<path d="M0 0 C0.66 0.33 1.32 0.66 2 1 C-14.25714425 16.26964975 -14.25714425 16.26964975 -21 22 C-21.66 20.68 -22.32 19.36 -23 18 C-22.17757812 17.3709375 -21.35515625 16.741875 -20.5078125 16.09375 C-13.60807254 10.80668036 -6.7613039 5.46398826 0 0 Z " fill="#E6E8E9" transform="translate(595,363)"/>
<path d="M0 0 C1.32 0.66 2.64 1.32 4 2 C3.38390949 6.00458831 1.44939347 8.83019669 -1 12 C-1.99 12 -2.98 12 -4 12 C-4 11.34 -4 10.68 -4 10 C-4.66 10 -5.32 10 -6 10 C-2.28571429 2.28571429 -2.28571429 2.28571429 0 0 Z " fill="#D3D4CF" transform="translate(433,557)"/>
<path d="M0 0 C0.66 0.33 1.32 0.66 2 1 C-9.52164009 9.44646925 -9.52164009 9.44646925 -15 13 C-15 11.02 -15 9.04 -15 7 C-12.54595776 5.80283341 -10.08748321 4.6170654 -7.625 3.4375 C-6.57699219 2.92413086 -6.57699219 2.92413086 -5.5078125 2.40039062 C-3.69947784 1.53969288 -1.85148044 0.76347564 0 0 Z " fill="#171918" transform="translate(733,269)"/>
<path d="M0 0 C0.33 0.99 0.66 1.98 1 3 C0.01196289 4.7175293 0.01196289 4.7175293 -1.52734375 6.57421875 C-2.07197266 7.24130859 -2.61660156 7.90839844 -3.17773438 8.59570312 C-3.75845703 9.28599609 -4.33917969 9.97628906 -4.9375 10.6875 C-5.51435547 11.38939453 -6.09121094 12.09128906 -6.68554688 12.81445312 C-8.11472974 14.55073313 -9.55299027 16.27857374 -11 18 C-12.21386936 14.35839192 -11.6674695 13.66834531 -10.0625 10.3125 C-9.68222656 9.50425781 -9.30195313 8.69601562 -8.91015625 7.86328125 C-8.60980469 7.24839844 -8.30945313 6.63351562 -8 6 C-7.01 6 -6.02 6 -5 6 C-3.54965396 4.69543498 -3.54965396 4.69543498 -2.3125 3 C-1.1678125 1.515 -1.1678125 1.515 0 0 Z " fill="#D6DAD9" transform="translate(323,728)"/>
<path d="M0 0 C0.66 0.33 1.32 0.66 2 1 C-4.435 6.94 -4.435 6.94 -11 13 C-11.33 12.01 -11.66 11.02 -12 10 C-8.04 6.7 -4.08 3.4 0 0 Z " fill="#C5C8C9" transform="translate(595,363)"/>
<path d="M0 0 C3.3 0.33 6.6 0.66 10 1 C9.01 1.495 9.01 1.495 8 2 C7.34786708 4.02463255 7.34786708 4.02463255 7 6 C5.83054208 5.19152271 4.66449539 4.37810888 3.5 3.5625 C2.8503125 3.11003906 2.200625 2.65757812 1.53125 2.19140625 C1.0259375 1.79824219 0.520625 1.40507812 0 1 C0 0.67 0 0.34 0 0 Z " fill="#1C1D1D" transform="translate(524,469)"/>
<path d="M0 0 C2 2 2 2 3 5 C-0.465 6.485 -0.465 6.485 -4 8 C-2.87548273 5.0280615 -1.77706209 2.66559313 0 0 Z " fill="#C4C7C6" transform="translate(331,713)"/>
<path d="M0 0 C0.33 0 0.66 0 1 0 C1.33 3.63 1.66 7.26 2 11 C0.68 9.68 -0.64 8.36 -2 7 C-1.34 4.69 -0.68 2.38 0 0 Z " fill="#2F3031" transform="translate(444,442)"/>
<path d="M0 0 C0.66 0.33 1.32 0.66 2 1 C-2.455 3.97 -2.455 3.97 -7 7 C-7.66 6.01 -8.32 5.02 -9 4 C-7.54618103 3.30300448 -6.08677047 2.61766134 -4.625 1.9375 C-3.40683594 1.36322266 -3.40683594 1.36322266 -2.1640625 0.77734375 C-1.44992187 0.52082031 -0.73578125 0.26429688 0 0 Z " fill="#343534" transform="translate(733,269)"/>
<path d="M0 0 C0.99 0 1.98 0 3 0 C2.49396008 2.16874252 2.00016187 3.99967627 1 6 C0.01 5.67 -0.98 5.34 -2 5 C-1.125 1.125 -1.125 1.125 0 0 Z " fill="#E5E6E4" transform="translate(434,559)"/>
<path d="M0 0 C0.66 0.33 1.32 0.66 2 1 C0.35 2.98 -1.3 4.96 -3 7 C-3.99 6.67 -4.98 6.34 -6 6 C-4 4 -2 2 0 0 Z " fill="#171819" transform="translate(518,707)"/>
<path d="M0 0 C0.66 0.33 1.32 0.66 2 1 C1.25 3.4375 1.25 3.4375 0 6 C-2 6.9375 -2 6.9375 -4 7 C-4.66 6.34 -5.32 5.68 -6 5 C-4.35 5 -2.7 5 -1 5 C-0.67 3.35 -0.34 1.7 0 0 Z " fill="#DADDDE" transform="translate(414,589)"/>
<path d="M0 0 C0.99 0.33 1.98 0.66 3 1 C1.35 2.98 -0.3 4.96 -2 7 C-2.6875 5.1875 -2.6875 5.1875 -3 3 C-1.5625 1.25 -1.5625 1.25 0 0 Z " fill="#BBBCB9" transform="translate(433,557)"/>
<path d="M0 0 C0.66 0 1.32 0 2 0 C1.8125 1.875 1.8125 1.875 1 4 C-1.5625 5.25 -1.5625 5.25 -4 6 C-2.7260411 3.96166576 -1.38938077 1.96147874 0 0 Z " fill="#DCDEDE" transform="translate(581,374)"/>
</svg>
